<?xml version="1.0" standalone="no"?>
<!DOCTYPE svg PUBLIC "-//W3C//DTD SVG 20010904//EN"
 "http://www.w3.org/TR/2001/REC-SVG-20010904/DTD/svg10.dtd">
<svg version="1.0" xmlns="http://www.w3.org/2000/svg"
 width="260.000000pt" height="260.000000pt" viewBox="0 0 260.000000 260.000000"
 preserveAspectRatio="xMidYMid meet">
<metadata>
Created by potrace 1.14, written by Peter Selinger 2001-2017
</metadata>
<g transform="translate(0.000000,260.000000) scale(0.100000,-0.100000)"
fill="#000000" stroke="none">
<path d="M0 1300 l0 -1300 1300 0 1300 0 0 1300 0 1300 -477 0 -477 0 76 -77
c172 -177 250 -285 371 -515 53 -100 64 -130 106 -268 27 -91 63 -282 59 -317
-3 -24 -15 -34 -86 -71 -88 -46 -295 -122 -332 -122 -12 0 -31 5 -42 11 -11 6
-34 15 -50 20 -29 8 -29 7 -23 -24 10 -46 13 -48 45 -32 53 28 110 15 110 -25
0 -25 -91 -171 -133 -213 -35 -35 -43 -39 -77 -34 -32 4 -39 1 -48 -18 -18
-39 -81 -80 -126 -82 -23 -1 -56 -5 -74 -9 -24 -5 -38 -2 -52 11 -16 15 -25
16 -44 7 -17 -8 -29 -7 -47 3 -72 42 -69 41 -95 7 -28 -35 -49 -40 -75 -16
-16 14 -20 14 -48 -1 -33 -17 -63 -9 -74 19 -7 18 -71 15 -107 -4 -22 -12 -26
-10 -52 21 -15 18 -31 49 -34 69 -4 19 -15 43 -25 52 -10 10 -26 43 -36 74
-17 56 -17 56 5 74 16 13 22 29 22 59 0 22 -4 42 -8 45 -4 2 -28 -11 -51 -30
-24 -19 -48 -34 -53 -34 -22 0 -70 37 -95 73 -25 36 -26 41 -14 85 6 25 26 77
42 115 35 80 35 124 -3 254 l-21 73 26 57 c14 32 28 72 31 88 10 48 42 92 86
120 38 24 40 28 34 61 -8 44 8 106 59 219 40 90 116 224 145 258 14 16 -8 17
-461 17 l-477 0 0 -1300z m2089 -148 c25 -16 63 -34 84 -41 32 -11 37 -16 37
-44 0 -18 -5 -48 -11 -67 -14 -46 -48 -243 -43 -251 2 -3 4 -67 5 -141 1 -135
1 -136 -31 -196 -52 -98 -63 -105 -188 -113 -114 -7 -265 -43 -334 -79 -86
-45 -140 -52 -398 -55 -281 -4 -301 0 -326 62 -22 52 -29 323 -9 323 8 0 17
-4 20 -10 3 -5 15 -10 26 -10 28 0 21 31 -10 46 -23 12 -41 31 -41 46 0 14 65
38 90 33 21 -5 29 -1 38 20 14 30 38 32 67 5 20 -18 23 -19 35 -5 16 20 39 19
62 -2 17 -15 19 -15 36 0 20 19 107 24 117 8 3 -6 27 -7 53 -4 39 4 50 2 66
-16 17 -19 20 -19 48 -5 35 18 50 10 78 -47 l19 -37 90 -7 c153 -12 197 6 220
90 6 22 22 108 37 190 36 204 77 335 106 335 6 0 32 -13 57 -28z m-1271 -336
c34 -59 43 -84 40 -113 -5 -61 -29 -48 -58 32 -15 39 -36 88 -47 110 -11 22
-24 51 -28 64 l-7 24 28 -20 c16 -12 48 -55 72 -97z"/>
<path d="M996 564 c-10 -26 -7 -34 13 -34 14 0 18 5 14 20 -7 27 -20 34 -27
14z"/>
<path d="M905 2016 c38 -25 72 -43 74 -40 8 8 -33 44 -73 64 -73 35 -74 21 -1
-24z"/>
<path d="M1472 2025 c-20 -19 -32 -35 -26 -35 16 0 77 43 82 58 7 22 -18 12
-56 -23z"/>
<path d="M1815 2008 c-17 -4 -59 -28 -95 -53 -36 -25 -99 -67 -140 -94 -41
-27 -102 -69 -134 -93 -33 -24 -68 -46 -78 -50 -24 -10 -58 4 -100 41 -32 28
-48 31 -48 10 0 -4 22 -23 49 -43 34 -25 59 -36 84 -36 42 0 49 -6 90 -84 18
-33 39 -63 47 -66 141 -67 158 -72 191 -65 41 8 216 90 240 111 11 10 19 39
23 87 8 83 -10 166 -50 235 -33 56 -27 72 28 72 38 1 40 2 23 12 -29 17 -96
25 -130 16z"/>
<path d="M668 1870 c-26 -16 -22 -33 6 -28 43 9 53 -6 32 -48 -24 -51 -34
-201 -16 -245 20 -46 151 -109 230 -109 46 0 60 4 77 23 27 28 68 111 82 164
7 27 23 50 46 67 19 15 35 34 35 42 0 18 -2 18 -59 -3 l-47 -16 -156 76 c-165
82 -202 94 -230 77z"/>
<path d="M1137 1632 c-23 -25 -97 -205 -97 -234 0 -53 50 -63 100 -21 l32 27
48 -27 c54 -30 82 -34 100 -12 15 18 6 74 -20 125 -19 37 -126 160 -139 160
-4 0 -15 -8 -24 -18z"/>
</g>
</svg>
