<svg id="visual" viewBox="0 0 6880 1440" width="6880" height="1440" xmlns="http://www.w3.org/2000/svg" xmlns:xlink="http://www.w3.org/1999/xlink" version="1.1"><rect x="0" y="0" width="6880" height="1440" fill="#160828"></rect><path d="M0 1158L60.3 1151.3C120.7 1144.7 241.3 1131.3 362 1121.2C482.7 1111 603.3 1104 724 1097.2C844.7 1090.3 965.3 1083.7 1086 1076.8C1206.7 1070 1327.3 1063 1448.2 1077.2C1569 1091.3 1690 1126.7 1810.8 1148.8C1931.7 1171 2052.3 1180 2173 1170.7C2293.7 1161.3 2414.3 1133.7 2535 1135.5C2655.7 1137.3 2776.3 1168.7 2897 1171C3017.7 1173.3 3138.3 1146.7 3259 1154.5C3379.7 1162.3 3500.3 1204.7 3621 1227.8C3741.7 1251 3862.3 1255 3983 1259.7C4103.7 1264.3 4224.3 1269.7 4345 1260.2C4465.7 1250.7 4586.3 1226.3 4707 1202.5C4827.7 1178.7 4948.3 1155.3 5069.2 1129.7C5190 1104 5311 1076 5431.8 1101.7C5552.7 1127.3 5673.3 1206.7 5794 1209.7C5914.7 1212.7 6035.3 1139.3 6156 1123.7C6276.7 1108 6397.3 1150 6518 1174.5C6638.7 1199 6759.3 1206 6819.7 1209.5L6880 1213L6880 1441L6819.7 1441C6759.3 1441 6638.7 1441 6518 1441C6397.3 1441 6276.7 1441 6156 1441C6035.3 1441 5914.7 1441 5794 1441C5673.3 1441 5552.7 1441 5431.8 1441C5311 1441 5190 1441 5069.2 1441C4948.3 1441 4827.7 1441 4707 1441C4586.3 1441 4465.7 1441 4345 1441C4224.3 1441 4103.7 1441 3983 1441C3862.3 1441 3741.7 1441 3621 1441C3500.3 1441 3379.7 1441 3259 1441C3138.3 1441 3017.7 1441 2897 1441C2776.3 1441 2655.7 1441 2535 1441C2414.3 1441 2293.7 1441 2173 1441C2052.3 1441 1931.7 1441 1810.8 1441C1690 1441 1569 1441 1448.2 1441C1327.3 1441 1206.7 1441 1086 1441C965.3 1441 844.7 1441 724 1441C603.3 1441 482.7 1441 362 1441C241.3 1441 120.7 1441 60.3 1441L0 1441Z" fill="#311a52"></path><path d="M0 1318L60.3 1295.5C120.7 1273 241.3 1228 362 1211.2C482.7 1194.3 603.3 1205.7 724 1231.2C844.7 1256.7 965.3 1296.3 1086 1305.8C1206.7 1315.3 1327.3 1294.7 1448.2 1274.8C1569 1255 1690 1236 1810.8 1219.5C1931.7 1203 2052.3 1189 2173 1208.3C2293.7 1227.7 2414.3 1280.3 2535 1288C2655.7 1295.7 2776.3 1258.3 2897 1246.3C3017.7 1234.3 3138.3 1247.7 3259 1237.8C3379.7 1228 3500.3 1195 3621 1183.7C3741.7 1172.3 3862.3 1182.7 3983 1186.7C4103.7 1190.7 4224.3 1188.3 4345 1213.8C4465.7 1239.3 4586.3 1292.7 4707 1297.7C4827.7 1302.7 4948.3 1259.3 5069.2 1260.5C5190 1261.7 5311 1307.3 5431.8 1300C5552.7 1292.7 5673.3 1232.3 5794 1225.3C5914.7 1218.3 6035.3 1264.7 6156 1261.3C6276.7 1258 6397.3 1205 6518 1193.5C6638.7 1182 6759.3 1212 6819.7 1227L6880 1242L6880 1441L6819.7 1441C6759.3 1441 6638.7 1441 6518 1441C6397.3 1441 6276.7 1441 6156 1441C6035.3 1441 5914.7 1441 5794 1441C5673.3 1441 5552.7 1441 5431.8 1441C5311 1441 5190 1441 5069.2 1441C4948.3 1441 4827.7 1441 4707 1441C4586.3 1441 4465.7 1441 4345 1441C4224.3 1441 4103.7 1441 3983 1441C3862.3 1441 3741.7 1441 3621 1441C3500.3 1441 3379.7 1441 3259 1441C3138.3 1441 3017.7 1441 2897 1441C2776.3 1441 2655.7 1441 2535 1441C2414.3 1441 2293.7 1441 2173 1441C2052.3 1441 1931.7 1441 1810.8 1441C1690 1441 1569 1441 1448.2 1441C1327.3 1441 1206.7 1441 1086 1441C965.3 1441 844.7 1441 724 1441C603.3 1441 482.7 1441 362 1441C241.3 1441 120.7 1441 60.3 1441L0 1441Z" fill="#3d2267"></path><path d="M0 1324L60.3 1337.7C120.7 1351.3 241.3 1378.7 362 1378C482.7 1377.3 603.3 1348.7 724 1326.3C844.7 1304 965.3 1288 1086 1283.7C1206.7 1279.3 1327.3 1286.7 1448.2 1288.8C1569 1291 1690 1288 1810.8 1291.8C1931.7 1295.7 2052.3 1306.3 2173 1317.5C2293.7 1328.7 2414.3 1340.3 2535 1329C2655.7 1317.7 2776.3 1283.3 2897 1294.2C3017.7 1305 3138.3 1361 3259 1361.8C3379.7 1362.7 3500.3 1308.3 3621 1290.8C3741.7 1273.3 3862.3 1292.7 3983 1296.3C4103.7 1300 4224.3 1288 4345 1285C4465.7 1282 4586.3 1288 4707 1311.2C4827.7 1334.3 4948.3 1374.7 5069.2 1394C5190 1413.3 5311 1411.7 5431.8 1397C5552.7 1382.3 5673.3 1354.7 5794 1353C5914.7 1351.3 6035.3 1375.7 6156 1378.8C6276.7 1382 6397.3 1364 6518 1366.3C6638.7 1368.7 6759.3 1391.3 6819.7 1402.7L6880 1414L6880 1441L6819.7 1441C6759.3 1441 6638.7 1441 6518 1441C6397.3 1441 6276.7 1441 6156 1441C6035.3 1441 5914.7 1441 5794 1441C5673.3 1441 5552.7 1441 5431.8 1441C5311 1441 5190 1441 5069.2 1441C4948.3 1441 4827.7 1441 4707 1441C4586.3 1441 4465.7 1441 4345 1441C4224.3 1441 4103.7 1441 3983 1441C3862.3 1441 3741.7 1441 3621 1441C3500.3 1441 3379.7 1441 3259 1441C3138.3 1441 3017.7 1441 2897 1441C2776.3 1441 2655.7 1441 2535 1441C2414.3 1441 2293.7 1441 2173 1441C2052.3 1441 1931.7 1441 1810.8 1441C1690 1441 1569 1441 1448.2 1441C1327.3 1441 1206.7 1441 1086 1441C965.3 1441 844.7 1441 724 1441C603.3 1441 482.7 1441 362 1441C241.3 1441 120.7 1441 60.3 1441L0 1441Z" fill="#492b7c"></path></svg>