<svg id="visual" viewBox="0 0 6680 1440" width="6680" height="1440" xmlns="http://www.w3.org/2000/svg" xmlns:xlink="http://www.w3.org/1999/xlink" version="1.1"><rect x="0" y="0" width="6680" height="1440" fill="#160828"></rect><path d="M0 1064L55.7 1090.2C111.3 1116.3 222.7 1168.7 334 1189C445.3 1209.3 556.7 1197.7 668 1183.3C779.3 1169 890.7 1152 1002 1161.5C1113.3 1171 1224.7 1207 1336 1203.8C1447.3 1200.7 1558.7 1158.3 1670 1130C1781.3 1101.7 1892.7 1087.3 2004 1079.8C2115.3 1072.3 2226.7 1071.7 2338 1080.2C2449.3 1088.7 2560.7 1106.3 2672 1126.5C2783.3 1146.7 2894.7 1169.3 3006 1163C3117.3 1156.7 3228.7 1121.3 3340 1126.3C3451.3 1131.3 3562.7 1176.7 3674 1180C3785.3 1183.3 3896.7 1144.7 4008 1136.8C4119.3 1129 4230.7 1152 4342 1168.3C4453.3 1184.7 4564.7 1194.3 4676 1178.3C4787.3 1162.3 4898.7 1120.7 5010 1103.7C5121.3 1086.7 5232.7 1094.3 5344 1113.5C5455.3 1132.7 5566.7 1163.3 5678 1192.8C5789.3 1222.3 5900.7 1250.7 6012 1240.8C6123.3 1231 6234.7 1183 6346 1165.8C6457.3 1148.7 6568.7 1162.3 6624.3 1169.2L6680 1176L6680 1441L6624.3 1441C6568.7 1441 6457.3 1441 6346 1441C6234.7 1441 6123.3 1441 6012 1441C5900.7 1441 5789.3 1441 5678 1441C5566.7 1441 5455.3 1441 5344 1441C5232.7 1441 5121.3 1441 5010 1441C4898.7 1441 4787.3 1441 4676 1441C4564.7 1441 4453.3 1441 4342 1441C4230.7 1441 4119.3 1441 4008 1441C3896.7 1441 3785.3 1441 3674 1441C3562.7 1441 3451.3 1441 3340 1441C3228.7 1441 3117.3 1441 3006 1441C2894.7 1441 2783.3 1441 2672 1441C2560.7 1441 2449.3 1441 2338 1441C2226.7 1441 2115.3 1441 2004 1441C1892.7 1441 1781.3 1441 1670 1441C1558.7 1441 1447.3 1441 1336 1441C1224.7 1441 1113.3 1441 1002 1441C890.7 1441 779.3 1441 668 1441C556.7 1441 445.3 1441 334 1441C222.7 1441 111.3 1441 55.7 1441L0 1441Z" fill="#311a52"></path><path d="M0 1239L55.7 1251C111.3 1263 222.7 1287 334 1297.5C445.3 1308 556.7 1305 668 1301.8C779.3 1298.7 890.7 1295.3 1002 1288.5C1113.3 1281.7 1224.7 1271.3 1336 1274.8C1447.3 1278.3 1558.7 1295.7 1670 1316.8C1781.3 1338 1892.7 1363 2004 1355.5C2115.3 1348 2226.7 1308 2338 1289C2449.3 1270 2560.7 1272 2672 1274.8C2783.3 1277.7 2894.7 1281.3 3006 1284.2C3117.3 1287 3228.7 1289 3340 1304.5C3451.3 1320 3562.7 1349 3674 1347.2C3785.3 1345.3 3896.7 1312.7 4008 1283.2C4119.3 1253.7 4230.7 1227.3 4342 1237.5C4453.3 1247.7 4564.7 1294.3 4676 1305.8C4787.3 1317.3 4898.7 1293.7 5010 1270C5121.3 1246.3 5232.7 1222.7 5344 1217.5C5455.3 1212.3 5566.7 1225.7 5678 1245C5789.3 1264.3 5900.7 1289.7 6012 1300.2C6123.3 1310.7 6234.7 1306.3 6346 1303.7C6457.3 1301 6568.7 1300 6624.3 1299.5L6680 1299L6680 1441L6624.3 1441C6568.7 1441 6457.3 1441 6346 1441C6234.7 1441 6123.3 1441 6012 1441C5900.7 1441 5789.3 1441 5678 1441C5566.7 1441 5455.3 1441 5344 1441C5232.7 1441 5121.3 1441 5010 1441C4898.7 1441 4787.3 1441 4676 1441C4564.7 1441 4453.3 1441 4342 1441C4230.7 1441 4119.3 1441 4008 1441C3896.7 1441 3785.3 1441 3674 1441C3562.7 1441 3451.3 1441 3340 1441C3228.7 1441 3117.3 1441 3006 1441C2894.7 1441 2783.3 1441 2672 1441C2560.7 1441 2449.3 1441 2338 1441C2226.7 1441 2115.3 1441 2004 1441C1892.7 1441 1781.3 1441 1670 1441C1558.7 1441 1447.3 1441 1336 1441C1224.7 1441 1113.3 1441 1002 1441C890.7 1441 779.3 1441 668 1441C556.7 1441 445.3 1441 334 1441C222.7 1441 111.3 1441 55.7 1441L0 1441Z" fill="#492b7c"></path></svg>