<svg id="visual" viewBox="0 0 6880 1440" width="6880" height="1440" xmlns="http://www.w3.org/2000/svg" xmlns:xlink="http://www.w3.org/1999/xlink" version="1.1"><rect x="0" y="0" width="6880" height="1440" fill="#492b7c"></rect><path d="M0 1093L60.3 1099.2C120.7 1105.3 241.3 1117.7 362 1139.2C482.7 1160.7 603.3 1191.3 724 1212.5C844.7 1233.7 965.3 1245.3 1086 1257.8C1206.7 1270.3 1327.3 1283.7 1448.2 1264.2C1569 1244.7 1690 1192.3 1810.8 1192.3C1931.7 1192.3 2052.3 1244.7 2173 1230.3C2293.7 1216 2414.3 1135 2535 1109.3C2655.7 1083.7 2776.3 1113.3 2897 1133.8C3017.7 1154.3 3138.3 1165.7 3259 1162.3C3379.7 1159 3500.3 1141 3621 1150.5C3741.7 1160 3862.3 1197 3983 1225.3C4103.7 1253.7 4224.3 1273.3 4345 1247.2C4465.7 1221 4586.3 1149 4707 1121.8C4827.7 1094.7 4948.3 1112.3 5069.2 1122.5C5190 1132.7 5311 1135.3 5431.8 1124.7C5552.7 1114 5673.3 1090 5794 1114.5C5914.7 1139 6035.3 1212 6156 1215C6276.7 1218 6397.3 1151 6518 1116.5C6638.7 1082 6759.3 1080 6819.7 1079L6880 1078L6880 1441L6819.7 1441C6759.3 1441 6638.7 1441 6518 1441C6397.3 1441 6276.7 1441 6156 1441C6035.3 1441 5914.7 1441 5794 1441C5673.3 1441 5552.7 1441 5431.8 1441C5311 1441 5190 1441 5069.2 1441C4948.3 1441 4827.7 1441 4707 1441C4586.3 1441 4465.7 1441 4345 1441C4224.3 1441 4103.7 1441 3983 1441C3862.3 1441 3741.7 1441 3621 1441C3500.3 1441 3379.7 1441 3259 1441C3138.3 1441 3017.7 1441 2897 1441C2776.3 1441 2655.7 1441 2535 1441C2414.3 1441 2293.7 1441 2173 1441C2052.3 1441 1931.7 1441 1810.8 1441C1690 1441 1569 1441 1448.2 1441C1327.3 1441 1206.7 1441 1086 1441C965.3 1441 844.7 1441 724 1441C603.3 1441 482.7 1441 362 1441C241.3 1441 120.7 1441 60.3 1441L0 1441Z" fill="#311a52"></path><path d="M0 1298L60.3 1297.3C120.7 1296.7 241.3 1295.3 362 1272.5C482.7 1249.7 603.3 1205.3 724 1189C844.7 1172.7 965.3 1184.3 1086 1193C1206.7 1201.7 1327.3 1207.3 1448.2 1227.5C1569 1247.7 1690 1282.3 1810.8 1282.8C1931.7 1283.3 2052.3 1249.7 2173 1237.2C2293.7 1224.7 2414.3 1233.3 2535 1234.7C2655.7 1236 2776.3 1230 2897 1231.3C3017.7 1232.7 3138.3 1241.3 3259 1230.7C3379.7 1220 3500.3 1190 3621 1205.7C3741.7 1221.3 3862.3 1282.7 3983 1287.8C4103.7 1293 4224.3 1242 4345 1209.8C4465.7 1177.7 4586.3 1164.3 4707 1169.7C4827.7 1175 4948.3 1199 5069.2 1227.5C5190 1256 5311 1289 5431.8 1286.8C5552.7 1284.7 5673.3 1247.3 5794 1245.5C5914.7 1243.7 6035.3 1277.3 6156 1291.2C6276.7 1305 6397.3 1299 6518 1291C6638.7 1283 6759.3 1273 6819.7 1268L6880 1263L6880 1441L6819.7 1441C6759.3 1441 6638.7 1441 6518 1441C6397.3 1441 6276.7 1441 6156 1441C6035.3 1441 5914.7 1441 5794 1441C5673.3 1441 5552.7 1441 5431.8 1441C5311 1441 5190 1441 5069.2 1441C4948.3 1441 4827.7 1441 4707 1441C4586.3 1441 4465.7 1441 4345 1441C4224.3 1441 4103.7 1441 3983 1441C3862.3 1441 3741.7 1441 3621 1441C3500.3 1441 3379.7 1441 3259 1441C3138.3 1441 3017.7 1441 2897 1441C2776.3 1441 2655.7 1441 2535 1441C2414.3 1441 2293.7 1441 2173 1441C2052.3 1441 1931.7 1441 1810.8 1441C1690 1441 1569 1441 1448.2 1441C1327.3 1441 1206.7 1441 1086 1441C965.3 1441 844.7 1441 724 1441C603.3 1441 482.7 1441 362 1441C241.3 1441 120.7 1441 60.3 1441L0 1441Z" fill="#22133d"></path><path d="M0 1313L60.3 1306.7C120.7 1300.3 241.3 1287.7 362 1283.2C482.7 1278.7 603.3 1282.3 724 1283.5C844.7 1284.7 965.3 1283.3 1086 1298.2C1206.7 1313 1327.3 1344 1448.2 1356.3C1569 1368.7 1690 1362.3 1810.8 1347.2C1931.7 1332 2052.3 1308 2173 1300.5C2293.7 1293 2414.3 1302 2535 1322.3C2655.7 1342.7 2776.3 1374.3 2897 1383.7C3017.7 1393 3138.3 1380 3259 1377.5C3379.7 1375 3500.3 1383 3621 1391.3C3741.7 1399.7 3862.3 1408.3 3983 1397.3C4103.7 1386.3 4224.3 1355.7 4345 1350.7C4465.7 1345.7 4586.3 1366.3 4707 1362.7C4827.7 1359 4948.3 1331 5069.2 1327C5190 1323 5311 1343 5431.8 1335C5552.7 1327 5673.3 1291 5794 1280.7C5914.7 1270.3 6035.3 1285.7 6156 1307.8C6276.7 1330 6397.3 1359 6518 1362.2C6638.7 1365.3 6759.3 1342.7 6819.7 1331.3L6880 1320L6880 1441L6819.7 1441C6759.3 1441 6638.7 1441 6518 1441C6397.3 1441 6276.7 1441 6156 1441C6035.3 1441 5914.7 1441 5794 1441C5673.3 1441 5552.7 1441 5431.8 1441C5311 1441 5190 1441 5069.2 1441C4948.3 1441 4827.7 1441 4707 1441C4586.3 1441 4465.7 1441 4345 1441C4224.3 1441 4103.7 1441 3983 1441C3862.3 1441 3741.7 1441 3621 1441C3500.3 1441 3379.7 1441 3259 1441C3138.3 1441 3017.7 1441 2897 1441C2776.3 1441 2655.7 1441 2535 1441C2414.3 1441 2293.7 1441 2173 1441C2052.3 1441 1931.7 1441 1810.8 1441C1690 1441 1569 1441 1448.2 1441C1327.3 1441 1206.7 1441 1086 1441C965.3 1441 844.7 1441 724 1441C603.3 1441 482.7 1441 362 1441C241.3 1441 120.7 1441 60.3 1441L0 1441Z" fill="#160828"></path></svg>