<svg id="visual" viewBox="0 0 6880 1440" width="6880" height="1440" xmlns="http://www.w3.org/2000/svg" xmlns:xlink="http://www.w3.org/1999/xlink" version="1.1"><rect x="0" y="0" width="6880" height="1440" fill="#492b7c"></rect><path d="M0 1099L67.5 1125.2C135 1151.3 270 1203.7 404.8 1236C539.7 1268.3 674.3 1280.7 809.2 1265C944 1249.3 1079 1205.7 1214 1208.3C1349 1211 1484 1260 1619 1268C1754 1276 1889 1243 2023.8 1226.3C2158.7 1209.7 2293.3 1209.3 2428.2 1192.3C2563 1175.3 2698 1141.7 2833 1147.7C2968 1153.7 3103 1199.3 3237.8 1207C3372.7 1214.7 3507.3 1184.3 3642.2 1163C3777 1141.7 3912 1129.3 4047 1139C4182 1148.7 4317 1180.3 4451.8 1183.7C4586.7 1187 4721.3 1162 4856.2 1150.7C4991 1139.3 5126 1141.7 5261 1154.2C5396 1166.7 5531 1189.3 5666 1205.5C5801 1221.7 5936 1231.3 6070.8 1208.7C6205.7 1186 6340.3 1131 6475.2 1106.2C6610 1081.3 6745 1086.7 6812.5 1089.3L6880 1092L6880 1441L6812.5 1441C6745 1441 6610 1441 6475.2 1441C6340.3 1441 6205.7 1441 6070.8 1441C5936 1441 5801 1441 5666 1441C5531 1441 5396 1441 5261 1441C5126 1441 4991 1441 4856.2 1441C4721.3 1441 4586.7 1441 4451.8 1441C4317 1441 4182 1441 4047 1441C3912 1441 3777 1441 3642.2 1441C3507.3 1441 3372.7 1441 3237.8 1441C3103 1441 2968 1441 2833 1441C2698 1441 2563 1441 2428.2 1441C2293.3 1441 2158.7 1441 2023.8 1441C1889 1441 1754 1441 1619 1441C1484 1441 1349 1441 1214 1441C1079 1441 944 1441 809.2 1441C674.3 1441 539.7 1441 404.8 1441C270 1441 135 1441 67.5 1441L0 1441Z" fill="#311a52"></path><path d="M0 1204L67.5 1226.8C135 1249.7 270 1295.3 404.8 1321.2C539.7 1347 674.3 1353 809.2 1349.2C944 1345.3 1079 1331.7 1214 1330.7C1349 1329.7 1484 1341.3 1619 1328.7C1754 1316 1889 1279 2023.8 1277.5C2158.7 1276 2293.3 1310 2428.2 1327.2C2563 1344.3 2698 1344.7 2833 1351.8C2968 1359 3103 1373 3237.8 1357.3C3372.7 1341.7 3507.3 1296.3 3642.2 1277.8C3777 1259.3 3912 1267.7 4047 1284.3C4182 1301 4317 1326 4451.8 1343.5C4586.7 1361 4721.3 1371 4856.2 1361.2C4991 1351.3 5126 1321.7 5261 1314.8C5396 1308 5531 1324 5666 1327.2C5801 1330.3 5936 1320.7 6070.8 1305.8C6205.7 1291 6340.3 1271 6475.2 1265C6610 1259 6745 1267 6812.5 1271L6880 1275L6880 1441L6812.5 1441C6745 1441 6610 1441 6475.2 1441C6340.3 1441 6205.7 1441 6070.8 1441C5936 1441 5801 1441 5666 1441C5531 1441 5396 1441 5261 1441C5126 1441 4991 1441 4856.2 1441C4721.3 1441 4586.7 1441 4451.8 1441C4317 1441 4182 1441 4047 1441C3912 1441 3777 1441 3642.2 1441C3507.3 1441 3372.7 1441 3237.8 1441C3103 1441 2968 1441 2833 1441C2698 1441 2563 1441 2428.2 1441C2293.3 1441 2158.7 1441 2023.8 1441C1889 1441 1754 1441 1619 1441C1484 1441 1349 1441 1214 1441C1079 1441 944 1441 809.2 1441C674.3 1441 539.7 1441 404.8 1441C270 1441 135 1441 67.5 1441L0 1441Z" fill="#160828"></path></svg>